<svg xmlns="http://www.w3.org/2000/svg" xmlns:xlink="http://www.w3.org/1999/xlink" width="520" zoomAndPan="magnify" viewBox="0 0 390 187.499995" height="250" preserveAspectRatio="xMidYMid meet" version="1.0"><defs><g/><clipPath id="6a3ac7a7ec"><path d="M 0.519531 4 L 256 4 L 256 167 L 0.519531 167 Z M 0.519531 4 " clip-rule="nonzero"/></clipPath><clipPath id="ab43e64088"><path d="M 265 0 L 389.480469 0 L 389.480469 168 L 265 168 Z M 265 0 " clip-rule="nonzero"/></clipPath></defs><path stroke-linecap="butt" transform="matrix(0, -0.64411, 0.64411, 0, 215.958149, 127.188786)" fill="none" stroke-linejoin="miter" d="M 47.572483 68.291387 C 38.627243 68.291387 31.12537 66.878342 25.072929 64.064382 C 19.014423 61.232228 14.47206 57.423678 11.44584 52.632667 C 8.419619 47.847722 6.903477 42.535158 6.903477 36.707107 C 6.903477 30.891184 8.419619 25.602879 11.44584 20.842191 C 14.47206 16.081504 19.014423 12.272954 25.072929 9.410477 C 31.12537 6.554065 38.627243 5.122826 47.572483 5.122826 C 56.626886 5.122826 64.153018 6.554065 70.150878 9.410477 C 76.154802 12.272954 80.666842 16.081504 83.693062 20.842191 C 86.725347 25.602879 88.235425 30.891184 88.235425 36.707107 C 88.235425 42.535158 86.725347 47.847722 83.693062 52.632667 C 80.666842 57.423678 76.154802 61.232228 70.150878 64.064382 C 64.153018 66.878342 56.626886 68.291387 47.572483 68.291387 Z M 47.572483 44.942793 C 51.666068 44.942793 54.795386 44.148334 56.948309 42.559417 C 59.119425 40.964435 60.204983 39.017708 60.204983 36.707107 C 60.204983 34.46928 59.119425 32.552876 56.948309 30.957894 C 54.795386 29.368977 51.666068 28.574518 47.572483 28.574518 C 43.472834 28.574518 40.337451 29.368977 38.1724 30.957894 C 36.013413 32.552876 34.939984 34.46928 34.939984 36.707107 C 34.939984 39.017708 36.013413 40.964435 38.1724 42.559417 C 40.337451 44.148334 43.472834 44.942793 47.572483 44.942793 Z M 47.572483 44.942793 " stroke="#000000" stroke-width="12.980955" stroke-opacity="1" stroke-miterlimit="4"/><path stroke-linecap="butt" transform="matrix(0, -0.64411, 0.64411, 0, 215.958149, 127.188786)" fill="none" stroke-linejoin="miter" d="M 47.572483 134.286038 C 38.627243 134.286038 31.12537 132.879058 25.072929 130.065097 C 19.014423 127.232943 14.47206 123.424393 11.44584 118.633383 C 8.419619 113.848437 6.903477 108.535874 6.903477 102.707822 C 6.903477 96.891899 8.419619 91.603594 11.44584 86.842907 C 14.47206 82.082219 19.014423 78.27367 25.072929 75.411192 C 31.12537 72.55478 38.627243 71.123541 47.572483 71.123541 C 56.626886 71.123541 64.153018 72.55478 70.150878 75.411192 C 76.154802 78.27367 80.666842 82.082219 83.693062 86.842907 C 86.725347 91.603594 88.235425 96.891899 88.235425 102.707822 C 88.235425 108.535874 86.725347 113.848437 83.693062 118.633383 C 80.666842 123.424393 76.154802 127.232943 70.150878 130.065097 C 64.153018 132.879058 56.626886 134.286038 47.572483 134.286038 Z M 47.572483 110.943508 C 51.666068 110.943508 54.795386 110.14905 56.948309 108.560132 C 59.119425 106.96515 60.204983 105.018423 60.204983 102.707822 C 60.204983 100.463931 59.119425 98.553592 56.948309 96.95861 C 54.795386 95.369692 51.666068 94.575234 47.572483 94.575234 C 43.472834 94.575234 40.337451 95.369692 38.1724 96.95861 C 36.013413 98.553592 34.939984 100.463931 34.939984 102.707822 C 34.939984 105.018423 36.013413 106.96515 38.1724 108.560132 C 40.337451 110.14905 43.472834 110.943508 47.572483 110.943508 Z M 47.572483 110.943508 " stroke="#000000" stroke-width="12.980955" stroke-opacity="1" stroke-miterlimit="4"/><g fill="#ff3131" fill-opacity="1"><g transform="translate(259.113517, 123.354319)"><g><path d="M 0.84375 -26.8125 C 0.84375 -21.050781 -0.0664062 -16.21875 -1.890625 -12.3125 C -3.710938 -8.414062 -6.164062 -5.488281 -9.25 -3.53125 C -12.332031 -1.582031 -15.75 -0.609375 -19.5 -0.609375 C -23.257812 -0.609375 -26.671875 -1.582031 -29.734375 -3.53125 C -32.796875 -5.488281 -35.242188 -8.414062 -37.078125 -12.3125 C -38.921875 -16.21875 -39.84375 -21.050781 -39.84375 -26.8125 C -39.84375 -32.644531 -38.921875 -37.492188 -37.078125 -41.359375 C -35.242188 -45.222656 -32.796875 -48.128906 -29.734375 -50.078125 C -26.671875 -52.023438 -23.257812 -53 -19.5 -53 C -15.75 -53 -12.332031 -52.023438 -9.25 -50.078125 C -6.164062 -48.128906 -3.710938 -45.222656 -1.890625 -41.359375 C -0.0664062 -37.492188 0.84375 -32.644531 0.84375 -26.8125 Z M -14.21875 -26.8125 C -14.21875 -29.445312 -14.726562 -31.460938 -15.75 -32.859375 C -16.769531 -34.253906 -18.019531 -34.953125 -19.5 -34.953125 C -20.957031 -34.953125 -22.195312 -34.253906 -23.21875 -32.859375 C -24.238281 -31.460938 -24.75 -29.445312 -24.75 -26.8125 C -24.75 -24.164062 -24.238281 -22.144531 -23.21875 -20.75 C -22.195312 -19.363281 -20.957031 -18.671875 -19.5 -18.671875 C -18.019531 -18.671875 -16.769531 -19.363281 -15.75 -20.75 C -14.726562 -22.144531 -14.21875 -24.164062 -14.21875 -26.8125 Z M -14.21875 -26.8125 "/></g></g></g><g fill="#ff3131" fill-opacity="1"><g transform="translate(301.624775, 123.354319)"><g><path d="M 0.84375 -26.8125 C 0.84375 -21.050781 -0.0664062 -16.21875 -1.890625 -12.3125 C -3.710938 -8.414062 -6.164062 -5.488281 -9.25 -3.53125 C -12.332031 -1.582031 -15.75 -0.609375 -19.5 -0.609375 C -23.257812 -0.609375 -26.671875 -1.582031 -29.734375 -3.53125 C -32.796875 -5.488281 -35.242188 -8.414062 -37.078125 -12.3125 C -38.921875 -16.21875 -39.84375 -21.050781 -39.84375 -26.8125 C -39.84375 -32.644531 -38.921875 -37.492188 -37.078125 -41.359375 C -35.242188 -45.222656 -32.796875 -48.128906 -29.734375 -50.078125 C -26.671875 -52.023438 -23.257812 -53 -19.5 -53 C -15.75 -53 -12.332031 -52.023438 -9.25 -50.078125 C -6.164062 -48.128906 -3.710938 -45.222656 -1.890625 -41.359375 C -0.0664062 -37.492188 0.84375 -32.644531 0.84375 -26.8125 Z M -14.21875 -26.8125 C -14.21875 -29.445312 -14.726562 -31.460938 -15.75 -32.859375 C -16.769531 -34.253906 -18.019531 -34.953125 -19.5 -34.953125 C -20.957031 -34.953125 -22.195312 -34.253906 -23.21875 -32.859375 C -24.238281 -31.460938 -24.75 -29.445312 -24.75 -26.8125 C -24.75 -24.164062 -24.238281 -22.144531 -23.21875 -20.75 C -22.195312 -19.363281 -20.957031 -18.671875 -19.5 -18.671875 C -18.019531 -18.671875 -16.769531 -19.363281 -15.75 -20.75 C -14.726562 -22.144531 -14.21875 -24.164062 -14.21875 -26.8125 Z M -14.21875 -26.8125 "/></g></g></g><g clip-path="url(#6a3ac7a7ec)"><path stroke-linecap="butt" transform="matrix(0.844497, 0, 0, 0.844497, -22.95589, 10.101376)" fill="none" stroke-linejoin="miter" d="M 93.846074 95.378697 L 66.597063 106.22557 L 96.908176 106.22557 L 96.908176 132.998151 L 34.560626 132.998151 L 34.560626 110.120268 L 61.721752 98.796965 L 34.560626 98.796965 L 34.560626 72.140022 L 93.846074 72.140022 Z M 127.922371 132.998151 L 100.909262 132.998151 L 100.909262 47.800471 L 130.623681 47.800471 L 126.109162 95.258433 L 127.681843 95.258433 C 128.098141 90.720786 129.09263 86.571683 130.65606 82.8065 C 132.242618 79.022815 134.448997 76.002342 137.284448 73.745082 C 140.133776 71.464695 143.630678 70.326814 147.77053 70.326814 C 154.824467 70.326814 159.787663 72.55632 162.660118 77.015333 C 165.551076 81.469721 166.998868 87.593926 166.998868 95.378697 L 166.998868 132.998151 L 138.413078 132.998151 L 140.850733 111.100881 C 141.243904 108.0064 141.035755 105.244957 140.226287 102.807302 C 139.412193 100.369646 137.469469 99.153131 134.398116 99.153131 C 131.386894 99.153131 129.189766 100.480659 127.802107 103.135715 C 126.437575 105.767642 125.910264 108.663226 126.229426 111.813213 Z M 190.505823 69.110299 C 185.551878 69.110299 181.735814 67.94929 179.062256 65.631898 C 176.388698 63.314507 175.051919 60.372668 175.051919 56.806383 C 175.051919 53.240097 176.388698 50.339889 179.062256 48.101131 C 181.735814 45.862373 185.551878 44.742994 190.505823 44.742994 C 195.533777 44.742994 199.368343 45.862373 202.004896 48.101131 C 204.636824 50.339889 205.955101 53.240097 205.955101 56.806383 C 205.955101 60.372668 204.636824 63.314507 202.004896 65.631898 C 199.368343 67.94929 195.533777 69.110299 190.505823 69.110299 Z M 205.955101 132.998151 L 180.519299 132.998151 L 180.519299 100.133744 L 169.940706 100.133744 L 169.940706 72.140022 L 205.955101 72.140022 Z M 236.738019 111.813213 L 238.458717 132.998151 L 210.941425 132.998151 L 210.941425 72.140022 L 238.814883 72.140022 L 236.617755 95.258433 L 238.222814 95.258433 C 238.62061 90.720786 239.628976 86.571683 241.252538 82.8065 C 242.880725 79.022815 245.068602 76.002342 247.820794 73.745082 C 250.572986 71.464695 253.861739 70.326814 257.687054 70.326814 C 264.916761 70.326814 270.027975 72.477686 273.020694 76.774806 C 276.031916 81.076551 277.539839 87.274764 277.539839 95.378697 L 277.419575 132.998151 L 249.041934 132.998151 L 251.474964 110.712336 C 251.891262 107.640983 251.673862 104.948923 250.822764 102.631531 C 249.971666 100.309514 247.922556 99.153131 244.670806 99.153131 C 242.075883 99.153131 240.026772 100.27251 238.518848 102.511268 C 237.01555 104.750025 236.418857 107.849132 236.738019 111.813213 Z M 236.738019 111.813213 " stroke="#000000" stroke-width="9.1293" stroke-opacity="1" stroke-miterlimit="4"/></g><g fill="#ff3131" fill-opacity="1"><g transform="translate(4.7014, 122.41953)"><g><path d="M 51.609375 -31.765625 L 28.578125 -22.609375 L 54.171875 -22.609375 L 54.171875 0 L 1.546875 0 L 1.546875 -19.328125 L 24.46875 -28.890625 L 1.546875 -28.890625 L 1.546875 -51.390625 L 51.609375 -51.390625 Z M 51.609375 -31.765625 "/></g></g></g><g fill="#ff3131" fill-opacity="1"><g transform="translate(60.003002, 122.41953)"><g><path d="M 25.078125 0 L 2.265625 0 L 2.265625 -71.953125 L 27.34375 -71.953125 L 23.546875 -31.859375 L 24.875 -31.859375 C 25.21875 -35.703125 26.054688 -39.21875 27.390625 -42.40625 C 28.734375 -45.59375 30.601562 -48.144531 33 -50.0625 C 35.394531 -51.976562 38.34375 -52.9375 41.84375 -52.9375 C 47.800781 -52.9375 51.992188 -51.050781 54.421875 -47.28125 C 56.859375 -43.507812 58.078125 -38.335938 58.078125 -31.765625 L 58.078125 0 L 33.921875 0 L 35.984375 -18.5 C 36.328125 -21.101562 36.15625 -23.429688 35.46875 -25.484375 C 34.78125 -27.546875 33.132812 -28.578125 30.53125 -28.578125 C 28 -28.578125 26.148438 -27.460938 24.984375 -25.234375 C 23.816406 -23.003906 23.367188 -20.554688 23.640625 -17.890625 Z M 25.078125 0 "/></g></g></g><g fill="#ff3131" fill-opacity="1"><g transform="translate(119.930206, 122.41953)"><g><path d="M 17.984375 -53.96875 C 13.804688 -53.96875 10.585938 -54.941406 8.328125 -56.890625 C 6.066406 -58.847656 4.9375 -61.332031 4.9375 -64.34375 C 4.9375 -67.363281 6.066406 -69.816406 8.328125 -71.703125 C 10.585938 -73.585938 13.804688 -74.53125 17.984375 -74.53125 C 22.234375 -74.53125 25.472656 -73.585938 27.703125 -71.703125 C 29.929688 -69.816406 31.046875 -67.363281 31.046875 -64.34375 C 31.046875 -61.332031 29.929688 -58.847656 27.703125 -56.890625 C 25.472656 -54.941406 22.234375 -53.96875 17.984375 -53.96875 Z M 31.046875 0 L 9.5625 0 L 9.5625 -27.75 L 0.609375 -27.75 L 0.609375 -51.390625 L 31.046875 -51.390625 Z M 31.046875 0 "/></g></g></g><g fill="#ff3131" fill-opacity="1"><g transform="translate(152.926143, 122.41953)"><g><path d="M 24.046875 -17.890625 L 25.5 0 L 2.265625 0 L 2.265625 -51.390625 L 25.796875 -51.390625 L 23.953125 -31.859375 L 25.28125 -31.859375 C 25.625 -35.703125 26.476562 -39.21875 27.84375 -42.40625 C 29.21875 -45.59375 31.070312 -48.144531 33.40625 -50.0625 C 35.738281 -51.976562 38.515625 -52.9375 41.734375 -52.9375 C 47.835938 -52.9375 52.15625 -51.117188 54.6875 -47.484375 C 57.21875 -43.859375 58.484375 -38.617188 58.484375 -31.765625 L 58.390625 0 L 34.4375 0 L 36.5 -18.8125 C 36.832031 -21.414062 36.640625 -23.691406 35.921875 -25.640625 C 35.203125 -27.597656 33.472656 -28.578125 30.734375 -28.578125 C 28.546875 -28.578125 26.816406 -27.632812 25.546875 -25.75 C 24.273438 -23.863281 23.773438 -21.242188 24.046875 -17.890625 Z M 24.046875 -17.890625 "/></g></g></g><g clip-path="url(#ab43e64088)"><path stroke-linecap="butt" transform="matrix(0.916223, 0, 0, 0.916223, 303.759256, -1.218905)" fill="none" stroke-linejoin="miter" d="M 35.666259 116.208413 L 37.836343 133.002054 L 9.488814 133.002054 L 9.488814 47.801718 L 38.57818 47.801718 L 33.943834 98.796575 L 35.163174 98.796575 L 42.709441 72.141626 L 82.529854 72.141626 L 41.255612 101.11588 L 42.236201 102.330957 C 43.366009 101.026348 45.186493 99.589573 47.701915 98.024895 C 50.217337 96.4389 53.099414 95.645902 56.352409 95.645902 C 62.432057 95.645902 67.394687 97.291585 71.240298 100.578688 C 75.102964 103.848737 77.925353 108.304019 79.707465 113.95306 C 81.510895 119.597838 82.372107 125.946082 82.291102 133.002054 L 50.379347 133.002054 C 50.7929 130.482369 51.078549 127.621609 51.24056 124.411248 C 51.398306 121.200887 51.270404 118.122692 50.852588 115.168137 C 50.456089 112.196528 49.565033 109.762111 48.179419 107.860622 C 46.810858 105.959133 44.789994 105.04676 42.116825 105.127765 C 39.601402 105.127765 37.768129 106.185095 36.617003 108.304019 C 35.487195 110.405888 35.171701 113.040687 35.666259 116.208413 Z M 35.666259 116.208413 " stroke="#000000" stroke-width="9.1293" stroke-opacity="1" stroke-miterlimit="4"/></g><g fill="#ff3131" fill-opacity="1"><g transform="translate(310.001025, 120.638743)"><g><path d="M 26.421875 -15.390625 L 28.4375 0 L 2.453125 0 L 2.453125 -78.0625 L 29.109375 -78.0625 L 24.875 -31.328125 L 25.984375 -31.328125 L 32.890625 -55.75 L 69.359375 -55.75 L 31.5625 -29.21875 L 32.453125 -28.109375 C 33.492188 -29.296875 35.164062 -30.613281 37.46875 -32.0625 C 39.769531 -33.507812 42.410156 -34.234375 45.390625 -34.234375 C 50.960938 -34.234375 55.515625 -32.726562 59.046875 -29.71875 C 62.578125 -26.707031 65.160156 -22.617188 66.796875 -17.453125 C 68.429688 -12.285156 69.210938 -6.46875 69.140625 0 L 39.921875 0 C 40.296875 -2.300781 40.554688 -4.921875 40.703125 -7.859375 C 40.847656 -10.796875 40.734375 -13.617188 40.359375 -16.328125 C 39.992188 -19.046875 39.175781 -21.28125 37.90625 -23.03125 C 36.644531 -24.78125 34.789062 -25.613281 32.34375 -25.53125 C 30.03125 -25.53125 28.351562 -24.5625 27.3125 -22.625 C 26.28125 -20.695312 25.984375 -18.285156 26.421875 -15.390625 Z M 26.421875 -15.390625 "/></g></g></g></svg>